<mxfile host="65bd71144e">
    <diagram id="2nYFK-solKxx2WhCAmkt" name="第 1 页">
        <mxGraphModel dx="1538" dy="895" grid="1" gridSize="10" guides="1" tooltips="1" connect="1" arrows="1" fold="1" page="1" pageScale="1" pageWidth="827" pageHeight="1169" math="0" shadow="0">
            <root>
                <mxCell id="0"/>
                <mxCell id="1" parent="0"/>
                <mxCell id="2" value="chat-auth" style="swimlane;childLayout=stackLayout;resizeParent=1;resizeParentMax=0;startSize=20;" parent="1" vertex="1">
                    <mxGeometry x="80" y="40" width="830" height="520" as="geometry"/>
                </mxCell>
                <mxCell id="3" value="观看端" style="swimlane;startSize=20;" parent="2" vertex="1">
                    <mxGeometry y="20" width="120" height="500" as="geometry"/>
                </mxCell>
                <mxCell id="4" value="发起端" style="swimlane;startSize=20;" parent="2" vertex="1">
                    <mxGeometry x="120" y="20" width="150" height="500" as="geometry"/>
                </mxCell>
                <mxCell id="5" style="edgeStyle=none;html=1;exitX=0.5;exitY=1;exitDx=0;exitDy=0;entryX=0.5;entryY=0;entryDx=0;entryDy=0;" parent="4" source="6" target="8" edge="1">
                    <mxGeometry relative="1" as="geometry"/>
                </mxCell>
                <mxCell id="6" value="初始化" style="rounded=1;whiteSpace=wrap;html=1;" parent="4" vertex="1">
                    <mxGeometry x="20" y="50" width="110" height="30" as="geometry"/>
                </mxCell>
                <mxCell id="7" style="edgeStyle=none;html=1;entryX=0.5;entryY=0;entryDx=0;entryDy=0;" parent="4" source="8" target="9" edge="1">
                    <mxGeometry relative="1" as="geometry"/>
                </mxCell>
                <mxCell id="8" value="解析路由参数/初始化sdk实例" style="rounded=0;whiteSpace=wrap;html=1;" parent="4" vertex="1">
                    <mxGeometry x="20" y="110" width="110" height="40" as="geometry"/>
                </mxCell>
                <mxCell id="9" value="组装参数，初始化视图" style="rounded=0;whiteSpace=wrap;html=1;" parent="4" vertex="1">
                    <mxGeometry x="20" y="180" width="110" height="40" as="geometry"/>
                </mxCell>
                <mxCell id="10" style="edgeStyle=orthogonalEdgeStyle;html=1;exitX=0.5;exitY=1;exitDx=0;exitDy=0;entryX=0.5;entryY=0;entryDx=0;entryDy=0;" parent="4" source="11" target="13" edge="1">
                    <mxGeometry relative="1" as="geometry"/>
                </mxCell>
                <mxCell id="11" value="数据更新" style="rounded=0;whiteSpace=wrap;html=1;" parent="4" vertex="1">
                    <mxGeometry x="20" y="260" width="110" height="40" as="geometry"/>
                </mxCell>
                <mxCell id="13" value="刷新视图" style="rounded=1;whiteSpace=wrap;html=1;fillColor=#ffcc99;strokeColor=#36393d;" parent="4" vertex="1">
                    <mxGeometry x="20" y="330" width="110" height="40" as="geometry"/>
                </mxCell>
                <mxCell id="14" value="管理员操作（如通过，回复，禁言等）" style="rounded=0;whiteSpace=wrap;html=1;" parent="4" vertex="1">
                    <mxGeometry x="20" y="430" width="110" height="50" as="geometry"/>
                </mxCell>
                <mxCell id="15" value="sdk" style="swimlane;startSize=20;" parent="2" vertex="1">
                    <mxGeometry x="270" y="20" width="160" height="500" as="geometry"/>
                </mxCell>
                <mxCell id="16" value="chatAuthServer&lt;br&gt;初始化事件监听" style="rounded=0;whiteSpace=wrap;html=1;" parent="15" vertex="1">
                    <mxGeometry x="12.5" y="170" width="135" height="60" as="geometry"/>
                </mxCell>
                <mxCell id="31" value="chatAuthServer&lt;br&gt;处理数据" style="rounded=0;whiteSpace=wrap;html=1;" vertex="1" parent="15">
                    <mxGeometry x="12.5" y="260" width="135" height="60" as="geometry"/>
                </mxCell>
                <mxCell id="17" value="后端" style="swimlane;" parent="2" vertex="1">
                    <mxGeometry x="430" y="20" width="200" height="500" as="geometry"/>
                </mxCell>
                <mxCell id="18" value="请求接口" style="rounded=0;whiteSpace=wrap;html=1;" parent="17" vertex="1">
                    <mxGeometry x="32.5" y="170" width="135" height="60" as="geometry"/>
                </mxCell>
                <mxCell id="45" value="请求接口" style="rounded=0;whiteSpace=wrap;html=1;" vertex="1" parent="17">
                    <mxGeometry x="30" y="430" width="135" height="60" as="geometry"/>
                </mxCell>
                <mxCell id="20" style="edgeStyle=none;html=1;exitX=1;exitY=0.5;exitDx=0;exitDy=0;entryX=0;entryY=0.5;entryDx=0;entryDy=0;" parent="2" source="9" target="16" edge="1">
                    <mxGeometry relative="1" as="geometry"/>
                </mxCell>
                <mxCell id="32" style="edgeStyle=orthogonalEdgeStyle;rounded=0;sketch=1;hachureGap=4;orthogonalLoop=1;jettySize=auto;html=1;exitX=0.5;exitY=1;exitDx=0;exitDy=0;entryX=1;entryY=0.5;entryDx=0;entryDy=0;fontFamily=Architects Daughter;fontSource=https%3A%2F%2Ffonts.googleapis.com%2Fcss%3Ffamily%3DArchitects%2BDaughter;fontSize=12;endArrow=classic;endFill=1;sourcePerimeterSpacing=8;targetPerimeterSpacing=8;strokeColor=default;strokeWidth=1;" edge="1" parent="2" source="18" target="31">
                    <mxGeometry relative="1" as="geometry"/>
                </mxCell>
                <mxCell id="33" style="edgeStyle=orthogonalEdgeStyle;rounded=0;sketch=1;hachureGap=4;orthogonalLoop=1;jettySize=auto;html=1;exitX=0;exitY=0.5;exitDx=0;exitDy=0;entryX=1;entryY=0.75;entryDx=0;entryDy=0;fontFamily=Architects Daughter;fontSource=https%3A%2F%2Ffonts.googleapis.com%2Fcss%3Ffamily%3DArchitects%2BDaughter;fontSize=12;endArrow=classic;endFill=1;sourcePerimeterSpacing=8;targetPerimeterSpacing=8;strokeColor=default;strokeWidth=1;" edge="1" parent="2" source="31" target="11">
                    <mxGeometry relative="1" as="geometry"/>
                </mxCell>
                <mxCell id="47" style="edgeStyle=orthogonalEdgeStyle;rounded=0;sketch=1;hachureGap=4;orthogonalLoop=1;jettySize=auto;html=1;entryX=0;entryY=0.5;entryDx=0;entryDy=0;fontFamily=Architects Daughter;fontSource=https%3A%2F%2Ffonts.googleapis.com%2Fcss%3Ffamily%3DArchitects%2BDaughter;fontSize=12;endArrow=classic;endFill=1;sourcePerimeterSpacing=8;targetPerimeterSpacing=8;strokeColor=default;strokeWidth=1;elbow=vertical;" edge="1" parent="2" source="45" target="46">
                    <mxGeometry relative="1" as="geometry"/>
                </mxCell>
                <mxCell id="48" style="edgeStyle=orthogonalEdgeStyle;rounded=0;sketch=1;hachureGap=4;orthogonalLoop=1;jettySize=auto;html=1;exitX=0.5;exitY=0;exitDx=0;exitDy=0;entryX=0.552;entryY=1.067;entryDx=0;entryDy=0;entryPerimeter=0;fontFamily=Architects Daughter;fontSource=https%3A%2F%2Ffonts.googleapis.com%2Fcss%3Ffamily%3DArchitects%2BDaughter;fontSize=12;endArrow=classic;endFill=1;sourcePerimeterSpacing=8;targetPerimeterSpacing=8;strokeColor=default;strokeWidth=1;elbow=vertical;" edge="1" parent="2" source="46" target="31">
                    <mxGeometry relative="1" as="geometry"/>
                </mxCell>
                <mxCell id="19" value="paas" style="swimlane;" parent="2" vertex="1">
                    <mxGeometry x="630" y="20" width="200" height="500" as="geometry"/>
                </mxCell>
                <mxCell id="46" value="派发事件" style="rounded=0;whiteSpace=wrap;html=1;" vertex="1" parent="19">
                    <mxGeometry x="20" y="430" width="135" height="60" as="geometry"/>
                </mxCell>
                <mxCell id="52" style="rounded=0;sketch=1;hachureGap=4;orthogonalLoop=1;jettySize=auto;html=1;entryX=0;entryY=0.5;entryDx=0;entryDy=0;fontFamily=Architects Daughter;fontSource=https%3A%2F%2Ffonts.googleapis.com%2Fcss%3Ffamily%3DArchitects%2BDaughter;fontSize=12;endArrow=classic;endFill=1;sourcePerimeterSpacing=8;targetPerimeterSpacing=8;strokeColor=default;strokeWidth=1;elbow=vertical;" edge="1" parent="2" source="14" target="45">
                    <mxGeometry relative="1" as="geometry"/>
                </mxCell>
                <mxCell id="22" style="edgeStyle=none;html=1;exitX=1;exitY=0.5;exitDx=0;exitDy=0;" parent="1" source="16" edge="1">
                    <mxGeometry relative="1" as="geometry">
                        <mxPoint x="540" y="260.1428571428571" as="targetPoint"/>
                    </mxGeometry>
                </mxCell>
            </root>
        </mxGraphModel>
    </diagram>
</mxfile>